# xmcd
#
# Track frame offsets:
#	230
#	23113
#	40501
#	68566
#	92719
#	113775
#	132576
#	162078
#	178519
#	195276
#	209819
#	227509
#	253743
#
# Disc length: 3765 seconds
# Revision: 0
# Processed by: cddbd v1.5.2PL0 Copyright (c) Steve Scherf et al.
# Submitted via: dBpowerAMP V12.0
#
DISCID=a90eb20d
DTITLE=Various Artist - Dylan suomeksi
DYEAR=2016
DGENRE=Folk
TTITLE0=Anssi Kela - Vahdinvaihto (Changing of Guards)
TTITLE1=Wentus Blues Band - Lapin tyttö (Girl from North Country)
TTITLE2=Paleface - Kuoleman kauppiaat (Masters of War)
TTITLE3=Mika Kuokkanen and Ninni Poijärvi - Raivon kyyneleitä (Tears of Rage)
TTITLE4=Eero Raittinen and Tero Pulkkinen - Kun mä lasken Niagaran (When I Paint My Masterpiece)
TTITLE5=Jukka Gustavson - Löydät rauhan ja lohdutuksen (I Shall Be Released)
TTITLE6=Pelle Miljoona - Enää itkeä voit (Like a Rolling Stone)
TTITLE7=Mariska - Mun ainoo rakkautein (Make You Feel My Love)
TTITLE8=Jukka Gustavson - Onko rakkautesi turhaa (Is Your Love in Vain)
TTITLE9=Aija Puurtinen and Esa Kuloniemi - Nauru ottaa joogaa, H-molli tsugen (It Takes a Lot to Laugh, It Takes a Train to Cry)
TTITLE10=Heikki Silvennoinen - Samaan aikaan naapurissa (All Along the Watchtower)
TTITLE11=Wentus Blues Band - Sokea McTell (Blind Willie McTell)
TTITLE12=Kauko Röyhkä, Mirkka Paajanen, Juho Kinaret and Pelle Miljoona - Tanssiva Jokeri (Jokerman)
EXTD=
EXTT0=
EXTT1=
EXTT2=
EXTT3=
EXTT4=
EXTT5=
EXTT6=
EXTT7=
EXTT8=
EXTT9=
EXTT10=
EXTT11=
EXTT12=
PLAYORDER=
